<mxfile host="65bd71144e">
    <diagram id="R5gmBe9-suahTCGNrmrC" name="Seite-1">
        <mxGraphModel dx="1758" dy="1150" grid="1" gridSize="10" guides="1" tooltips="1" connect="1" arrows="1" fold="1" page="1" pageScale="1" pageWidth="1600" pageHeight="900" math="0" shadow="0">
            <root>
                <mxCell id="0"/>
                <mxCell id="1" parent="0"/>
                <mxCell id="52" value="" style="endArrow=classic;startArrow=classic;html=1;fillColor=#008a00;strokeColor=#80FF00;" parent="1" source="48" target="20" edge="1">
                    <mxGeometry width="50" height="50" relative="1" as="geometry">
                        <mxPoint x="660" y="350" as="sourcePoint"/>
                        <mxPoint x="710" y="300" as="targetPoint"/>
                        <Array as="points">
                            <mxPoint x="560" y="120"/>
                            <mxPoint x="760" y="120"/>
                        </Array>
                    </mxGeometry>
                </mxCell>
                <mxCell id="5" value="Rasperry Pi" style="swimlane;fontStyle=0;childLayout=stackLayout;horizontal=1;startSize=26;horizontalStack=0;resizeParent=1;resizeParentMax=0;resizeLast=0;collapsible=1;marginBottom=0;" parent="1" vertex="1">
                    <mxGeometry x="690" y="250" width="140" height="78" as="geometry"/>
                </mxCell>
                <mxCell id="6" value="LEDFX" style="text;strokeColor=none;fillColor=none;align=left;verticalAlign=top;spacingLeft=4;spacingRight=4;overflow=hidden;rotatable=0;points=[[0,0.5],[1,0.5]];portConstraint=eastwest;" parent="5" vertex="1">
                    <mxGeometry y="26" width="140" height="26" as="geometry"/>
                </mxCell>
                <mxCell id="7" value="Webserver" style="text;strokeColor=none;fillColor=none;align=left;verticalAlign=top;spacingLeft=4;spacingRight=4;overflow=hidden;rotatable=0;points=[[0,0.5],[1,0.5]];portConstraint=eastwest;" parent="5" vertex="1">
                    <mxGeometry y="52" width="140" height="26" as="geometry"/>
                </mxCell>
                <mxCell id="10" value="X32" style="rounded=0;whiteSpace=wrap;html=1;" parent="1" vertex="1">
                    <mxGeometry x="940" y="259" width="120" height="60" as="geometry"/>
                </mxCell>
                <mxCell id="18" value="" style="endArrow=classic;html=1;fillColor=#a20025;strokeColor=#FF0000;" parent="1" source="10" target="5" edge="1">
                    <mxGeometry relative="1" as="geometry">
                        <mxPoint x="630" y="500" as="sourcePoint"/>
                        <mxPoint x="730" y="500" as="targetPoint"/>
                    </mxGeometry>
                </mxCell>
                <mxCell id="19" value="USB/Audio" style="edgeLabel;resizable=0;html=1;align=center;verticalAlign=middle;" parent="18" connectable="0" vertex="1">
                    <mxGeometry relative="1" as="geometry"/>
                </mxCell>
                <mxCell id="20" value="Switch" style="rounded=0;whiteSpace=wrap;html=1;" parent="1" vertex="1">
                    <mxGeometry x="700" width="120" height="60" as="geometry"/>
                </mxCell>
                <mxCell id="22" value="" style="endArrow=classic;startArrow=classic;html=1;fillColor=#008a00;strokeColor=#80FF00;" parent="1" source="20" target="10" edge="1">
                    <mxGeometry width="50" height="50" relative="1" as="geometry">
                        <mxPoint x="660" y="520" as="sourcePoint"/>
                        <mxPoint x="710" y="470" as="targetPoint"/>
                        <Array as="points">
                            <mxPoint x="760" y="120"/>
                            <mxPoint x="1000" y="120"/>
                        </Array>
                    </mxGeometry>
                </mxCell>
                <mxCell id="23" value="Ethernet" style="edgeLabel;html=1;align=center;verticalAlign=middle;resizable=0;points=[];" parent="22" vertex="1" connectable="0">
                    <mxGeometry x="0.2662" y="1" relative="1" as="geometry">
                        <mxPoint x="-64" y="1" as="offset"/>
                    </mxGeometry>
                </mxCell>
                <mxCell id="24" value="" style="endArrow=classic;startArrow=classic;html=1;fillColor=#008a00;strokeColor=#80FF00;" parent="1" source="20" target="5" edge="1">
                    <mxGeometry width="50" height="50" relative="1" as="geometry">
                        <mxPoint x="660" y="520" as="sourcePoint"/>
                        <mxPoint x="710" y="470" as="targetPoint"/>
                    </mxGeometry>
                </mxCell>
                <mxCell id="25" value="Ethernet" style="edgeLabel;html=1;align=center;verticalAlign=middle;resizable=0;points=[];" parent="24" vertex="1" connectable="0">
                    <mxGeometry x="0.11" y="-1" relative="1" as="geometry">
                        <mxPoint x="1" y="-21" as="offset"/>
                    </mxGeometry>
                </mxCell>
                <mxCell id="27" value="EPS32 WT32" style="swimlane;fontStyle=0;childLayout=stackLayout;horizontal=1;startSize=26;horizontalStack=0;resizeParent=1;resizeParentMax=0;resizeLast=0;collapsible=1;marginBottom=0;" parent="1" vertex="1">
                    <mxGeometry x="290" y="263" width="140" height="52" as="geometry"/>
                </mxCell>
                <mxCell id="28" value="WLED" style="text;strokeColor=none;fillColor=none;align=left;verticalAlign=top;spacingLeft=4;spacingRight=4;overflow=hidden;rotatable=0;points=[[0,0.5],[1,0.5]];portConstraint=eastwest;" parent="27" vertex="1">
                    <mxGeometry y="26" width="140" height="26" as="geometry"/>
                </mxCell>
                <mxCell id="31" value="" style="endArrow=classic;startArrow=classic;html=1;fillColor=#008a00;strokeColor=#80FF00;" parent="1" source="27" target="20" edge="1">
                    <mxGeometry width="50" height="50" relative="1" as="geometry">
                        <mxPoint x="660" y="520" as="sourcePoint"/>
                        <mxPoint x="710" y="470" as="targetPoint"/>
                        <Array as="points">
                            <mxPoint x="360" y="120"/>
                            <mxPoint x="760" y="120"/>
                        </Array>
                    </mxGeometry>
                </mxCell>
                <mxCell id="32" value="Ethernet" style="edgeLabel;html=1;align=center;verticalAlign=middle;resizable=0;points=[];horizontal=1;" parent="31" vertex="1" connectable="0">
                    <mxGeometry x="0.117" y="-2" relative="1" as="geometry">
                        <mxPoint x="81" y="-2" as="offset"/>
                    </mxGeometry>
                </mxCell>
                <mxCell id="33" value="Licht" style="ellipse;whiteSpace=wrap;html=1;aspect=fixed;" parent="1" vertex="1">
                    <mxGeometry x="320" y="360" width="80" height="80" as="geometry"/>
                </mxCell>
                <mxCell id="34" value="" style="endArrow=classic;html=1;fillColor=#e3c800;strokeColor=#FFFF33;" parent="1" source="27" target="33" edge="1">
                    <mxGeometry relative="1" as="geometry">
                        <mxPoint x="470" y="316" as="sourcePoint"/>
                        <mxPoint x="570" y="316" as="targetPoint"/>
                    </mxGeometry>
                </mxCell>
                <mxCell id="35" value="DMX" style="edgeLabel;resizable=0;html=1;align=center;verticalAlign=middle;" parent="34" connectable="0" vertex="1">
                    <mxGeometry relative="1" as="geometry"/>
                </mxCell>
                <mxCell id="36" value="Licht" style="ellipse;whiteSpace=wrap;html=1;aspect=fixed;" parent="1" vertex="1">
                    <mxGeometry x="320" y="480" width="80" height="80" as="geometry"/>
                </mxCell>
                <mxCell id="37" value="Licht" style="ellipse;whiteSpace=wrap;html=1;aspect=fixed;" parent="1" vertex="1">
                    <mxGeometry x="320" y="600" width="80" height="80" as="geometry"/>
                </mxCell>
                <mxCell id="40" value="" style="endArrow=classic;html=1;fillColor=#e3c800;strokeColor=#FFFF33;" parent="1" source="33" target="36" edge="1">
                    <mxGeometry relative="1" as="geometry">
                        <mxPoint x="380" y="295" as="sourcePoint"/>
                        <mxPoint x="380" y="370" as="targetPoint"/>
                    </mxGeometry>
                </mxCell>
                <mxCell id="41" value="DMX" style="edgeLabel;resizable=0;html=1;align=center;verticalAlign=middle;" parent="40" connectable="0" vertex="1">
                    <mxGeometry relative="1" as="geometry"/>
                </mxCell>
                <mxCell id="42" value="" style="endArrow=classic;html=1;fillColor=#e3c800;strokeColor=#FFFF33;" parent="1" source="36" target="37" edge="1">
                    <mxGeometry relative="1" as="geometry">
                        <mxPoint x="390" y="305" as="sourcePoint"/>
                        <mxPoint x="390" y="380" as="targetPoint"/>
                    </mxGeometry>
                </mxCell>
                <mxCell id="43" value="DMX" style="edgeLabel;resizable=0;html=1;align=center;verticalAlign=middle;" parent="42" connectable="0" vertex="1">
                    <mxGeometry relative="1" as="geometry"/>
                </mxCell>
                <mxCell id="47" style="edgeStyle=orthogonalEdgeStyle;rounded=0;orthogonalLoop=1;jettySize=auto;html=1;" parent="1" source="44" target="46" edge="1">
                    <mxGeometry relative="1" as="geometry"/>
                </mxCell>
                <mxCell id="44" value="" style="shape=curlyBracket;whiteSpace=wrap;html=1;rounded=1;size=0.5;" parent="1" vertex="1">
                    <mxGeometry x="240" y="240" width="80" height="480" as="geometry"/>
                </mxCell>
                <mxCell id="45" value="" style="shape=curlyBracket;whiteSpace=wrap;html=1;rounded=1;rotation=-180;" parent="1" vertex="1">
                    <mxGeometry x="1040" y="240" width="80" height="480" as="geometry"/>
                </mxCell>
                <mxCell id="46" value="&lt;h1&gt;Licht&lt;/h1&gt;&lt;p&gt;Das sind die Geräte die im Verbund für das Licht zuständig sind.&amp;nbsp;&lt;/p&gt;" style="text;html=1;strokeColor=none;fillColor=none;spacing=5;spacingTop=-20;whiteSpace=wrap;overflow=hidden;rounded=0;" parent="1" vertex="1">
                    <mxGeometry y="420" width="190" height="120" as="geometry"/>
                </mxCell>
                <mxCell id="48" value="ESP32 WT32" style="swimlane;fontStyle=0;childLayout=stackLayout;horizontal=1;startSize=26;horizontalStack=0;resizeParent=1;resizeParentMax=0;resizeLast=0;collapsible=1;marginBottom=0;" parent="1" vertex="1">
                    <mxGeometry x="490" y="250" width="140" height="78" as="geometry"/>
                </mxCell>
                <mxCell id="49" value="Individual Programm" style="text;strokeColor=none;fillColor=none;align=left;verticalAlign=top;spacingLeft=4;spacingRight=4;overflow=hidden;rotatable=0;points=[[0,0.5],[1,0.5]];portConstraint=eastwest;" parent="48" vertex="1">
                    <mxGeometry y="26" width="140" height="26" as="geometry"/>
                </mxCell>
                <mxCell id="50" value="Steuerung des Lichts" style="text;strokeColor=none;fillColor=none;align=left;verticalAlign=top;spacingLeft=4;spacingRight=4;overflow=hidden;rotatable=0;points=[[0,0.5],[1,0.5]];portConstraint=eastwest;" parent="48" vertex="1">
                    <mxGeometry y="52" width="140" height="26" as="geometry"/>
                </mxCell>
                <mxCell id="53" value="Ethernet" style="edgeLabel;html=1;align=center;verticalAlign=middle;resizable=0;points=[];" parent="1" vertex="1" connectable="0">
                    <mxGeometry x="470" y="120" as="geometry"/>
                </mxCell>
            </root>
        </mxGraphModel>
    </diagram>
</mxfile>